<svg xmlns="http://www.w3.org/2000/svg" viewBox="0 0 280 185"><style>text{font-family:sans-serif;font-size:10px}.custom-element-reaction-queue .reaction{font-size:8px;text-anchor:middle}.queue-in-stack rect{fill:transparent;stroke:#a9a9a9}line,path,rect{stroke:#000}</style><defs><marker id="arrow" markerHeight="6" markerWidth="6" orient="auto" refX="5" refY="3"><path fill="#000" d="M0,0 V6 L5,3 Z"/></marker><marker id="circle" markerHeight="3" markerWidth="3" refX="1.5" refY="1.5"><circle cx="1.5" cy="1.5" r="1.5" fill="#000"/></marker><marker id="diamond" markerHeight="10" markerWidth="6" refX="3" refY="10"><path fill="#fff" stroke="#000" d="M3,0 L6,5 L3,10 L0,5 Z"/></marker></defs><g class="custom-elements-reaction-stack" transform="translate(0.5,0)"><text x="40" y="10" style="text-anchor:middle">custom element</text><text x="40" y="20" style="text-anchor:middle">reactions stack</text><line x1="0" x2="0" y1="30" y2="130"/><line x1="0" x2="80" y1="50" y2="50"/><line x1="0" x2="80" y1="70" y2="70"/><line x1="0" x2="80" y1="90" y2="90"/><line x1="0" x2="80" y1="110" y2="110"/><line x1="0" x2="80" y1="130" y2="130"/><line x1="80" x2="80" y1="130" y2="30"/><g class="queue-in-stack" transform="translate(0,50)"><rect width="15" height="10" x="5" y="5" rx="2" ry="2"/><rect width="15" height="10" x="25" y="5" rx="2" ry="2"/></g><g class="queue-in-stack" transform="translate(0,70)"><rect width="15" height="10" x="5" y="5" rx="2" ry="2"/><rect width="15" height="10" x="25" y="5" rx="2" ry="2"/><rect width="15" height="10" x="45" y="5" rx="2" ry="2"/><text x="65" y="14">⋯</text></g><g class="queue-in-stack" transform="translate(0,90)"><rect width="15" height="10" x="5" y="5" rx="2" ry="2"/></g><g class="queue-in-stack" transform="translate(0,110)"><rect width="15" height="10" x="5" y="5" rx="2" ry="2"/><rect width="15" height="10" x="25" y="5" rx="2" ry="2"/><rect width="15" height="10" x="45" y="5" rx="2" ry="2"/></g></g><path marker-end="url(#arrow)" marker-start="url(#circle)" d="M80.5,80.5 L120,80.5"/><g class="element-queue" transform="translate(125,60)"><text x="65" y="0" style="text-anchor:middle">element queue</text><rect width="154.5" height="30" x="0" y="5" fill="transparent"/><g class="element-queue-element" transform="translate(10,10)"><rect width="35" height="20" x="0" y="0" fill="transparent" rx="5" ry="5"/><text x="18" y="14" style="text-anchor:middle">&lt;x-a&gt;</text></g><g class="element-queue-element" transform="translate(50,10)"><rect width="35" height="20" x="0" y="0" fill="transparent" rx="5" ry="5"/><text x="18" y="14" style="text-anchor:middle">&lt;x-b&gt;</text></g><g class="element-queue-element" transform="translate(90,10)"><rect width="35" height="20" x="0" y="0" fill="transparent" rx="5" ry="5"/><text x="18" y="14" style="text-anchor:middle">&lt;x-c&gt;</text></g><text x="135" y="24">⋯</text></g><path fill="transparent" marker-end="url(#arrow)" marker-start="url(#diamond)" d="M192.5,100 C192.5,120 150,110 150,140"/><g class="custom-element-reaction-queue" transform="translate(70,150)"><text x="85" y="0" style="text-anchor:middle">custom element reaction queue</text><rect width="170" height="29.5" x="0" y="5" fill="transparent"/><text x="20" y="24" class="reaction">Upgrade</text><line x1="40" x2="40" y1="5" y2="35"/><text x="60" y="18" class="reaction">Attribute</text><text x="60" y="26" class="reaction">changed</text><line x1="80" x2="80" y1="5" y2="35"/><text x="100" y="18" class="reaction">Attribute</text><text x="100" y="26" class="reaction">changed</text><line x1="120" x2="120" y1="5" y2="35"/><text x="145" y="24" class="reaction">Connected</text></g></svg>